<svg width="28" height="28" viewBox="0 0 28 28" fill="none" xmlns="http://www.w3.org/2000/svg">
<path d="M11.9638 2.65047C13.0188 1.28757 15.1106 1.28757 16.1657 2.65047L17.4833 4.35262C17.7712 4.72444 18.2414 4.91523 18.7134 4.85167L20.8739 4.5607C22.6039 4.32773 24.083 5.7765 23.8451 7.47095L23.5481 9.58719C23.4832 10.0495 23.6779 10.5101 24.0576 10.792L25.7953 12.0827C27.1868 13.1161 27.1868 15.165 25.7953 16.1984L24.0576 17.489C23.6779 17.771 23.4832 18.2316 23.5481 18.6938L23.8451 20.8101C24.083 22.5045 22.6039 23.9533 20.8739 23.7203L18.7134 23.4294C18.2414 23.3658 17.7712 23.5566 17.4833 23.9284L16.1657 25.6306C15.1106 26.9935 13.0188 26.9935 11.9638 25.6306L10.6461 23.9284C10.3583 23.5566 9.88801 23.3658 9.41606 23.4294L7.25551 23.7203C5.52558 23.9533 4.04648 22.5045 4.28433 20.8101L4.58139 18.6938C4.64628 18.2316 4.4515 17.771 4.07189 17.489L2.3341 16.1984C0.94267 15.165 0.94267 13.1161 2.3341 12.0827L4.07189 10.792C4.4515 10.5101 4.64628 10.0495 4.58139 9.58719L4.28433 7.47095C4.04648 5.7765 5.52558 4.32773 7.25551 4.5607L9.41606 4.85167C9.88801 4.91523 10.3583 4.72444 10.6461 4.35262L11.9638 2.65047Z" stroke="#F9F9F9" stroke-width="2"/>
</svg>
