<svg width="26" height="29" viewBox="0 0 26 29" fill="none" xmlns="http://www.w3.org/2000/svg">
<path d="M17.7787 12.9608C18.1252 12.5307 18.0575 11.9012 17.6275 11.5547C17.1974 11.2082 16.5679 11.2759 16.2213 11.7059L13.526 15.051C12.9726 15.7378 12.6234 16.1674 12.3328 16.4388C12.1962 16.5663 12.1089 16.6231 12.0588 16.6481C12.0215 16.6668 12.0082 16.6667 12.001 16.6667H11.9991C11.9919 16.6667 11.9786 16.6668 11.9412 16.6481C11.8911 16.6231 11.8039 16.5663 11.6673 16.4388C11.3767 16.1674 11.0275 15.7378 10.474 15.051L9.7787 14.188C9.43217 13.758 8.80264 13.6903 8.37259 14.0368C7.94254 14.3833 7.87483 15.0128 8.22135 15.4429L8.96012 16.3597C9.45679 16.9762 9.895 17.5202 10.3022 17.9005C10.7394 18.3088 11.283 18.6667 12 18.6667C12.717 18.6667 13.2606 18.3088 13.6978 17.9005C14.1051 17.5202 14.5433 16.9762 15.04 16.3597L17.7787 12.9608Z" fill="#FAFAFA"/>
<path fill-rule="evenodd" clip-rule="evenodd" d="M9.75053 0.666687C7.69481 0.666687 6.02831 2.33318 6.02831 4.38891C6.02831 5.34007 5.25725 6.11113 4.30609 6.11113H3.89427C1.79286 6.11113 -0.0790292 7.73699 0.0349806 9.99533C0.170345 12.6767 0.765882 16.8558 2.93809 20.8144C3.54648 21.9231 4.359 23.0123 5.23735 24.0271L5.30348 24.1035C6.56704 25.5635 7.62058 26.7808 8.75321 27.6106C9.97146 28.5031 11.2717 28.9477 13.0001 28.9477C14.7285 28.9477 16.0287 28.5031 17.247 27.6106C18.3796 26.7808 19.4331 25.5635 20.6967 24.1035L20.7628 24.0271C21.6412 23.0123 22.4537 21.9231 23.0621 20.8144C25.3065 16.7242 25.8662 12.1022 25.9766 9.22083C26.0627 6.97334 24.2041 5.33335 22.091 5.33335H21.3052C20.5688 5.33335 19.9719 4.7364 19.9719 4.00002C19.9719 2.15907 18.4795 0.666687 16.6385 0.666687H9.75053ZM8.02831 4.38891C8.02831 3.43775 8.79937 2.66669 9.75053 2.66669H16.6385C17.3749 2.66669 17.9719 3.26364 17.9719 4.00002C17.9719 5.84097 19.4643 7.33335 21.3052 7.33335H22.091C23.2079 7.33335 24.0156 8.16416 23.978 9.14427C23.8726 11.8973 23.3358 16.1582 21.3087 19.8523C20.7901 20.7974 20.0721 21.7691 19.2506 22.7182C17.9038 24.2743 16.9943 25.3164 16.065 25.9972C15.2016 26.6297 14.3185 26.9477 13.0001 26.9477C11.6817 26.9477 10.7986 26.6297 9.93516 25.9972C9.00585 25.3164 8.0964 24.2743 6.74958 22.7182C5.92813 21.7691 5.21005 20.7974 4.69146 19.8523C2.72014 16.2597 2.15971 12.4155 2.03244 9.89449C1.98402 8.93534 2.77408 8.11113 3.89427 8.11113H4.30609C6.36181 8.11113 8.02831 6.44464 8.02831 4.38891Z" fill="#FAFAFA"/>
</svg>
