<svg width="338" height="19" viewBox="0 0 338 19" fill="none" xmlns="http://www.w3.org/2000/svg">
<line y1="10.5" x2="338" y2="10.5" stroke="white" stroke-opacity="0.2"/>
<rect x="153" width="31" height="19" fill="#D9D9D9"/>
<path d="M168.33 9.46C168.33 10.0067 168.248 10.5033 168.085 10.95C167.922 11.3933 167.692 11.7733 167.395 12.09C167.098 12.4033 166.742 12.6467 166.325 12.82C165.912 12.99 165.455 13.075 164.955 13.075C164.455 13.075 163.998 12.99 163.585 12.82C163.172 12.6467 162.817 12.4033 162.52 12.09C162.223 11.7733 161.993 11.3933 161.83 10.95C161.667 10.5033 161.585 10.0067 161.585 9.46C161.585 8.91667 161.667 8.42333 161.83 7.98C161.993 7.53333 162.223 7.15333 162.52 6.84C162.817 6.52333 163.172 6.27833 163.585 6.105C163.998 5.93167 164.455 5.845 164.955 5.845C165.455 5.845 165.912 5.93167 166.325 6.105C166.742 6.275 167.098 6.51833 167.395 6.835C167.692 7.15167 167.922 7.53333 168.085 7.98C168.248 8.42333 168.33 8.91667 168.33 9.46ZM167.8 9.46C167.8 8.96667 167.732 8.52333 167.595 8.13C167.458 7.73667 167.265 7.40333 167.015 7.13C166.765 6.85667 166.465 6.64833 166.115 6.505C165.765 6.35833 165.378 6.285 164.955 6.285C164.535 6.285 164.15 6.35833 163.8 6.505C163.45 6.64833 163.148 6.85667 162.895 7.13C162.645 7.40333 162.45 7.73667 162.31 8.13C162.173 8.52333 162.105 8.96667 162.105 9.46C162.105 9.95667 162.173 10.4017 162.31 10.795C162.45 11.185 162.645 11.5167 162.895 11.79C163.148 12.0633 163.45 12.2717 163.8 12.415C164.15 12.5583 164.535 12.63 164.955 12.63C165.378 12.63 165.765 12.5583 166.115 12.415C166.465 12.2717 166.765 12.0633 167.015 11.79C167.265 11.5167 167.458 11.185 167.595 10.795C167.732 10.4017 167.8 9.95667 167.8 9.46ZM171.695 9.42C172.008 9.42 172.288 9.38333 172.535 9.31C172.785 9.23333 172.995 9.125 173.165 8.985C173.338 8.845 173.47 8.67667 173.56 8.48C173.65 8.28333 173.695 8.06167 173.695 7.815C173.695 7.31167 173.53 6.93833 173.2 6.695C172.873 6.45167 172.395 6.33 171.765 6.33H170.47V9.42H171.695ZM174.835 13H174.395C174.338 13 174.29 12.9917 174.25 12.975C174.213 12.955 174.178 12.92 174.145 12.87L171.875 10C171.848 9.96333 171.82 9.93167 171.79 9.905C171.763 9.87833 171.732 9.85833 171.695 9.845C171.662 9.82833 171.62 9.81667 171.57 9.81C171.523 9.80333 171.465 9.8 171.395 9.8H170.47V13H169.955V5.925H171.765C172.578 5.925 173.187 6.08333 173.59 6.4C173.997 6.71333 174.2 7.175 174.2 7.785C174.2 8.055 174.153 8.30167 174.06 8.525C173.967 8.74833 173.832 8.945 173.655 9.115C173.482 9.28167 173.27 9.41833 173.02 9.525C172.773 9.63167 172.495 9.70333 172.185 9.74C172.265 9.79 172.337 9.85667 172.4 9.94L174.835 13Z" fill="black" fill-opacity="0.5"/>
</svg>
