<svg width="32" height="32" viewBox="0 0 32 32" fill="none" xmlns="http://www.w3.org/2000/svg">
<path fill-rule="evenodd" clip-rule="evenodd" d="M14.6667 8.33333C12.6416 8.33333 11 9.97496 11 12C11 14.025 12.6416 15.6667 14.6667 15.6667C16.6917 15.6667 18.3333 14.025 18.3333 12C18.3333 9.97496 16.6917 8.33333 14.6667 8.33333ZM13 12C13 11.0795 13.7462 10.3333 14.6667 10.3333C15.5871 10.3333 16.3333 11.0795 16.3333 12C16.3333 12.9205 15.5871 13.6667 14.6667 13.6667C13.7462 13.6667 13 12.9205 13 12Z" fill="#FAFAFA"/>
<path fill-rule="evenodd" clip-rule="evenodd" d="M21.9514 3.16497C20.4285 2.99998 18.509 2.99999 16.0603 3H15.9397C13.491 2.99999 11.5715 2.99998 10.0486 3.16497C8.49459 3.33334 7.23541 3.6831 6.16031 4.4642C5.50945 4.93708 4.93708 5.50945 4.4642 6.16031C3.6831 7.23541 3.33334 8.49459 3.16497 10.0486C2.99998 11.5715 2.99999 13.491 3 15.9397V16.0603C2.99999 18.509 2.99998 20.4285 3.16497 21.9514C3.33334 23.5054 3.6831 24.7646 4.4642 25.8397C4.48136 25.8633 4.49865 25.8868 4.51608 25.9102C4.97873 26.532 5.53307 27.0801 6.16031 27.5358C7.23541 28.3169 8.49459 28.6667 10.0486 28.835C11.5715 29 13.4909 29 15.9395 29H16.0604C18.509 29 20.4285 29 21.9514 28.835C23.5054 28.6667 24.7646 28.3169 25.8397 27.5358C26.4905 27.0629 27.0629 26.4905 27.5358 25.8397C28.6956 24.2433 28.9203 22.2061 28.9798 19.334C29 18.3576 29 17.2537 29 16.008V15.9396C29 13.491 29 11.5715 28.835 10.0486C28.6667 8.49459 28.3169 7.23541 27.5358 6.16031C27.0629 5.50945 26.4905 4.93708 25.8397 4.4642C24.7646 3.6831 23.5054 3.33334 21.9514 3.16497ZM7.33588 6.08224C8.01322 5.59012 8.88018 5.30327 10.2641 5.15334C11.6667 5.00137 13.4779 5 16 5C18.5221 5 20.3333 5.00137 21.7359 5.15334C23.1198 5.30327 23.9868 5.59012 24.6641 6.08224C25.1452 6.43176 25.5682 6.85482 25.9178 7.33588C26.4099 8.01322 26.6967 8.88018 26.8467 10.2641C26.9986 11.6667 27 13.4779 27 16C27 16.34 27 16.6674 26.9996 16.9831C26.8584 16.8634 26.7247 16.7582 26.5931 16.6648C23.2983 14.3255 18.7534 14.945 16.205 18.0808C15.9935 18.341 15.7909 18.6458 15.5615 19.0258L15.3949 18.9925C13.9294 18.6992 13.032 18.5197 12.1895 18.5376C9.93825 18.5854 7.82181 19.6205 6.40191 21.3682C6.04135 21.812 5.73704 22.3316 5.36988 23.0374C5.2781 22.6597 5.20696 22.2309 5.15334 21.7359C5.00137 20.3333 5 18.5221 5 16C5 13.4779 5.00137 11.6667 5.15334 10.2641C5.30327 8.88018 5.59012 8.01322 6.08224 7.33588C6.43176 6.85481 6.85481 6.43176 7.33588 6.08224ZM25.4352 18.2956C25.7652 18.5299 26.1472 18.8971 26.9697 19.7176C26.8934 22.3452 26.6293 23.6848 25.9178 24.6641C25.5682 25.1452 25.1452 25.5682 24.6641 25.9178C23.9868 26.4099 23.1198 26.6967 21.7359 26.8467C20.3333 26.9986 18.5221 27 16 27C15.0109 27 14.1312 26.9998 13.3425 26.9904L16.4342 21.5206C16.6074 21.214 16.758 20.9477 16.8924 20.7126C17.3183 19.9677 17.5486 19.5987 17.757 19.3422C19.6407 17.0244 23 16.5665 25.4352 18.2956ZM11.1294 26.8413C11.1154 26.8661 11.1025 26.8913 11.0908 26.9168C10.7998 26.898 10.5249 26.8749 10.2641 26.8467C8.88018 26.6967 8.01322 26.4099 7.33588 25.9178C7.041 25.7035 6.7679 25.4616 6.52019 25.1957C7.26923 23.6976 7.5789 23.0913 7.95419 22.6293C9.00368 21.3375 10.568 20.5724 12.232 20.5371C12.7452 20.5262 13.3125 20.6196 14.5123 20.8562L11.1294 26.8413Z" fill="#FAFAFA"/>
</svg>
