<svg width="32" height="32" viewBox="0 0 32 32" fill="none" xmlns="http://www.w3.org/2000/svg">
<path fill-rule="evenodd" clip-rule="evenodd" d="M16.0001 10.9999C12.5023 10.9999 9.66675 13.8355 9.66675 17.3333C9.66675 20.8311 12.5023 23.6666 16.0001 23.6666C19.4979 23.6666 22.3334 20.8311 22.3334 17.3333C22.3334 13.8355 19.4979 10.9999 16.0001 10.9999ZM11.6667 17.3333C11.6667 14.94 13.6068 12.9999 16.0001 12.9999C18.3933 12.9999 20.3334 14.94 20.3334 17.3333C20.3334 19.7265 18.3933 21.6666 16.0001 21.6666C13.6068 21.6666 11.6667 19.7265 11.6667 17.3333Z" fill="#FAFAFA"/>
<path fill-rule="evenodd" clip-rule="evenodd" d="M20.8669 2.98807C18.0914 0.520904 13.9088 0.520903 11.1332 2.98807L10.8456 3.24378C10.056 3.9456 9.03636 4.33326 7.97999 4.33326C4.49328 4.33326 1.66675 7.1598 1.66675 10.6465V17.3936C1.66674 19.8423 1.66673 21.7618 1.83172 23.2846C2.00009 24.8387 2.34985 26.0979 3.13095 27.173C3.60383 27.8238 4.1762 28.3962 4.82706 28.8691C5.90216 29.6502 7.16133 29.9999 8.71538 30.1683C10.2382 30.3333 12.1576 30.3333 14.6063 30.3333H17.3938C19.8424 30.3333 21.762 30.3333 23.2848 30.1683C24.8388 29.9999 26.098 29.6502 27.1731 28.8691C27.824 28.3962 28.3963 27.8238 28.8692 27.173C29.6503 26.0979 30.0001 24.8387 30.1684 23.2846C30.3334 21.7618 30.3334 19.8424 30.3334 17.3937V10.6465C30.3334 7.1598 27.5069 4.33326 24.0202 4.33326C22.9638 4.33326 21.9442 3.9456 21.1546 3.24378L20.8669 2.98807ZM12.462 4.48289C14.4797 2.6893 17.5204 2.6893 19.5382 4.48289L19.8259 4.7386C20.9815 5.76584 22.474 6.33326 24.0202 6.33326C26.4023 6.33326 28.3334 8.26437 28.3334 10.6465V17.3333C28.3334 19.8554 28.332 21.6666 28.1801 23.0692C28.0301 24.4531 27.7433 25.32 27.2512 25.9974C26.9017 26.4785 26.4786 26.9015 25.9975 27.251C25.3202 27.7431 24.4532 28.03 23.0694 28.1799C21.6668 28.3319 19.8555 28.3333 17.3334 28.3333H14.6667C12.1447 28.3333 10.3334 28.3319 8.93081 28.1799C7.54693 28.03 6.67997 27.7431 6.00263 27.251C5.52156 26.9015 5.0985 26.4785 4.74899 25.9974C4.25687 25.32 3.97002 24.4531 3.82008 23.0692C3.66812 21.6666 3.66675 19.8554 3.66675 17.3333V10.6465C3.66675 8.26437 5.59785 6.33326 7.97999 6.33326C9.52619 6.33326 11.0186 5.76584 12.1743 4.7386L12.462 4.48289Z" fill="#FAFAFA"/>
<path d="M22.6667 10.6667C22.6667 11.403 23.2637 12 24.0001 12C24.7365 12 25.3334 11.403 25.3334 10.6667C25.3334 9.93029 24.7365 9.33333 24.0001 9.33333C23.2637 9.33333 22.6667 9.93029 22.6667 10.6667Z" fill="#FAFAFA"/>
</svg>
