<svg width="22" height="22" viewBox="0 0 22 22" fill="none" xmlns="http://www.w3.org/2000/svg">
<path fill-rule="evenodd" clip-rule="evenodd" d="M7 8.25C6.0335 8.25 5.25 9.0335 5.25 10V12C5.25 12.9665 6.0335 13.75 7 13.75H8.52297C9.23855 13.75 9.88204 13.3143 10.1478 12.6499L10.5078 11.75H12.4887C12.544 12.021 12.5084 12.3061 12.382 12.559L12.3292 12.6646C12.1439 13.0351 12.2941 13.4856 12.6646 13.6708C13.0351 13.8561 13.4856 13.7059 13.6708 13.3354L13.7236 13.2298C13.9555 12.7661 14.0485 12.2532 14.0026 11.75H15.4887C15.544 12.021 15.5084 12.3061 15.382 12.559L15.3292 12.6646C15.1439 13.0351 15.2941 13.4856 15.6646 13.6708C16.0351 13.8561 16.4856 13.7059 16.6708 13.3354L16.7236 13.2298C17.1107 12.4556 17.1107 11.5444 16.7236 10.7702C16.5642 10.4514 16.2384 10.25 15.882 10.25H13.0151C13.0047 10.2498 12.9942 10.2498 12.9837 10.25L10.5078 10.25L10.1478 9.35007C9.88204 8.68566 9.23855 8.25 8.52297 8.25H7ZM6.75 10C6.75 9.86193 6.86193 9.75 7 9.75H8.52297C8.62519 9.75 8.71712 9.81224 8.75509 9.90715L9.15509 10.9072C9.16701 10.937 9.17297 10.9684 9.17297 11C9.17297 11.0316 9.16701 11.063 9.15509 11.0928L8.75509 12.0928C8.71712 12.1878 8.62519 12.25 8.52297 12.25H7C6.86193 12.25 6.75 12.1381 6.75 12V10Z" fill="#FAFAFA"/>
<path fill-rule="evenodd" clip-rule="evenodd" d="M11 0.25C5.06294 0.25 0.25 5.06294 0.25 11C0.25 16.9371 5.06294 21.75 11 21.75C16.9371 21.75 21.75 16.9371 21.75 11C21.75 5.06294 16.9371 0.25 11 0.25ZM1.75 11C1.75 5.89137 5.89137 1.75 11 1.75C16.1086 1.75 20.25 5.89137 20.25 11C20.25 16.1086 16.1086 20.25 11 20.25C5.89137 20.25 1.75 16.1086 1.75 11Z" fill="#FAFAFA"/>
</svg>
