<svg width="28" height="31" viewBox="0 0 28 31" fill="none" xmlns="http://www.w3.org/2000/svg">
<path d="M1.12915 15.7174C1.12915 18.6211 1.20622 20.6987 1.45711 22.2482C1.70555 23.7826 2.11012 24.7007 2.69478 25.3595C3.29023 26.0305 4.1679 26.5423 5.5918 27.0751C6.6489 27.4706 7.92028 27.8486 9.4992 28.3181C10.0667 28.4868 10.674 28.6673 11.3253 28.8648C13.683 29.5794 15.3963 29.7424 16.6446 29.5081C17.8351 29.2847 18.6587 28.6913 19.2738 27.6999C19.9189 26.6601 20.3499 25.1527 20.6083 23.109C20.8651 21.0779 20.9412 18.6127 20.9412 15.7174C20.9412 12.8222 20.8651 10.357 20.6083 8.32584C20.3499 6.28215 19.9189 4.77481 19.2738 3.73499C18.6587 2.74358 17.8351 2.15019 16.6446 1.92679C15.3963 1.69256 13.6829 1.85549 11.3253 2.57011C10.674 2.7675 10.0669 2.94801 9.49943 3.11672C7.9204 3.58619 6.64894 3.9642 5.5918 4.35976C4.1679 4.89254 3.29024 5.40429 2.69478 6.0753C2.11012 6.73415 1.70555 7.6522 1.45711 9.18663C1.20622 10.7362 1.12915 12.8137 1.12915 15.7174Z" stroke="#F9F9F9" stroke-width="2" stroke-linecap="round" stroke-linejoin="round"/>
<ellipse cx="1.21178" cy="1.19125" rx="1.21178" ry="1.19125" transform="matrix(-1 0 0 1 17.094 14.7274)" fill="#F9F9F9"/>
<path d="M20.7295 26.4387C26.7884 26.4387 26.7884 24.9903 26.7884 15.9103C26.7884 6.8303 26.7884 4.99628 20.7295 4.99628" stroke="#F9F9F9" stroke-width="2" stroke-linecap="round" stroke-linejoin="round"/>
</svg>
