<svg width="32" height="23" viewBox="0 0 32 23" fill="none" xmlns="http://www.w3.org/2000/svg">
<path fill-rule="evenodd" clip-rule="evenodd" d="M15.9999 0.333374C13.2385 0.333374 10.9999 2.57195 10.9999 5.33337C10.9999 8.0948 13.2385 10.3334 15.9999 10.3334C18.7613 10.3334 20.9999 8.0948 20.9999 5.33337C20.9999 2.57195 18.7613 0.333374 15.9999 0.333374ZM12.9999 5.33337C12.9999 3.67652 14.3431 2.33337 15.9999 2.33337C17.6568 2.33337 18.9999 3.67652 18.9999 5.33337C18.9999 6.99023 17.6568 8.33337 15.9999 8.33337C14.3431 8.33337 12.9999 6.99023 12.9999 5.33337Z" fill="#FAFAFA"/>
<path fill-rule="evenodd" clip-rule="evenodd" d="M11.9999 12.3334C9.23849 12.3334 6.99992 14.572 6.99992 17.3334C6.99992 20.0948 9.23849 22.3334 11.9999 22.3334H19.9999C22.7613 22.3334 24.9999 20.0948 24.9999 17.3334C24.9999 14.572 22.7613 12.3334 19.9999 12.3334H11.9999ZM8.99992 17.3334C8.99992 15.6765 10.3431 14.3334 11.9999 14.3334H19.9999C21.6568 14.3334 22.9999 15.6765 22.9999 17.3334C22.9999 18.9902 21.6568 20.3334 19.9999 20.3334H11.9999C10.3431 20.3334 8.99992 18.9902 8.99992 17.3334Z" fill="#FAFAFA"/>
<path d="M10.3361 8.85158C10.1258 8.51374 9.7312 8.33337 9.33325 8.33337C7.6764 8.33337 6.33325 6.99023 6.33325 5.33337C6.33325 3.67652 7.6764 2.33337 9.33325 2.33337C9.7312 2.33337 10.1258 2.15301 10.3361 1.81517C10.3454 1.80023 10.3548 1.78533 10.3642 1.77046C10.7143 1.21778 10.5369 0.435241 9.88659 0.363645C9.7049 0.343642 9.52027 0.333374 9.33325 0.333374C6.57183 0.333374 4.33325 2.57195 4.33325 5.33337C4.33325 8.0948 6.57183 10.3334 9.33325 10.3334C9.52027 10.3334 9.7049 10.3231 9.88659 10.3031C10.5369 10.2315 10.7143 9.44896 10.3642 8.89629C10.3548 8.88142 10.3454 8.86652 10.3361 8.85158Z" fill="#FAFAFA"/>
<path d="M6.27764 19.4225C6.12628 19.17 5.85911 19 5.5647 19H5.33325C3.6764 19 2.33325 17.6569 2.33325 16C2.33325 14.3432 3.6764 13 5.33325 13H5.5647C5.85911 13 6.12628 12.8301 6.27764 12.5775C6.64711 11.9611 6.24616 11 5.52751 11H5.33325C2.57183 11 0.333252 13.2386 0.333252 16C0.333252 18.7615 2.57183 21 5.33325 21H5.52751C6.24617 21 6.64711 20.0389 6.27764 19.4225Z" fill="#FAFAFA"/>
<path d="M21.6357 8.89629C21.2855 9.44897 21.4629 10.2315 22.1132 10.3031C22.2949 10.3231 22.4796 10.3334 22.6666 10.3334C25.428 10.3334 27.6666 8.0948 27.6666 5.33337C27.6666 2.57195 25.428 0.333374 22.6666 0.333374C22.4796 0.333374 22.2949 0.343642 22.1132 0.363645C21.4629 0.435242 21.2855 1.21778 21.6357 1.77046C21.6451 1.78532 21.6544 1.80022 21.6637 1.81517C21.874 2.15301 22.2686 2.33337 22.6666 2.33337C24.3234 2.33337 25.6666 3.67652 25.6666 5.33337C25.6666 6.99023 24.3234 8.33337 22.6666 8.33337C22.2686 8.33337 21.874 8.51374 21.6637 8.85158C21.6544 8.86652 21.6451 8.88142 21.6357 8.89629Z" fill="#FAFAFA"/>
<path d="M25.7222 19.4225C25.3527 20.0389 25.7537 21 26.4723 21H26.6666C29.428 21 31.6666 18.7615 31.6666 16C31.6666 13.2386 29.428 11 26.6666 11H26.4723C25.7537 11 25.3527 11.9611 25.7222 12.5775C25.8736 12.8301 26.1407 13 26.4351 13H26.6666C28.3234 13 29.6666 14.3432 29.6666 16C29.6666 17.6569 28.3234 19 26.6666 19H26.4351C26.1407 19 25.8736 19.17 25.7222 19.4225Z" fill="#FAFAFA"/>
</svg>
