<svg width="27" height="27" viewBox="0 0 27 27" fill="none" xmlns="http://www.w3.org/2000/svg">
<path d="M17 3C17.5523 3 18 2.55228 18 2C18 1.44772 17.5523 1 17 1L12.9397 1C10.491 0.999989 8.57148 0.99998 7.04864 1.16497C5.49459 1.33334 4.23541 1.6831 3.16031 2.4642C2.50945 2.93708 1.93708 3.50945 1.4642 4.16031C0.683099 5.23541 0.333342 6.49459 0.164971 8.04863C-1.93715e-05 9.57148 -1.07113e-05 11.491 1.7645e-07 13.9397V14.0603C-1.07113e-05 16.509 -1.93715e-05 18.4285 0.164971 19.9514C0.333342 21.5054 0.683099 22.7646 1.4642 23.8397C1.93708 24.4905 2.50945 25.0629 3.16031 25.5358C4.23541 26.3169 5.49459 26.6667 7.04864 26.835C8.57146 27 10.4909 27 12.9395 27H13.0604C15.509 27 17.4285 27 18.9514 26.835C20.5054 26.6667 21.7646 26.3169 22.8397 25.5358C23.4905 25.0629 24.0629 24.4905 24.5358 23.8397C25.3169 22.7646 25.6667 21.5054 25.835 19.9514C26 18.4285 26 16.5091 26 14.0605V10C26 9.44772 25.5523 9 25 9C24.4477 9 24 9.44772 24 10V14C24 16.5221 23.9986 18.3333 23.8467 19.7359C23.6967 21.1198 23.4099 21.9868 22.9178 22.6641C22.5682 23.1452 22.1452 23.5682 21.6641 23.9178C20.9868 24.4099 20.1198 24.6967 18.7359 24.8467C17.3333 24.9986 15.5221 25 13 25C10.4779 25 8.66666 24.9986 7.26406 24.8467C5.88018 24.6967 5.01322 24.4099 4.33588 23.9178C3.85481 23.5682 3.43176 23.1452 3.08224 22.6641C2.59012 21.9868 2.30327 21.1198 2.15334 19.7359C2.00137 18.3333 2 16.5221 2 14C2 11.4779 2.00137 9.66666 2.15334 8.26406C2.30327 6.88018 2.59012 6.01322 3.08224 5.33588C3.43176 4.85481 3.85481 4.43175 4.33588 4.08224C5.01322 3.59012 5.88018 3.30327 7.26406 3.15333C8.66666 3.00137 10.4779 3 13 3H17Z" fill="#FAFAFA"/>
<path d="M5.43553 17.3691C5.19231 17.865 5.39709 18.4641 5.89293 18.7073C6.38878 18.9506 6.98791 18.7458 7.23114 18.2499L9.17825 14.2805C9.78177 13.0502 11.5556 13.1103 12.0745 14.3786C13.2467 17.244 17.2539 17.3798 18.6174 14.6003L20.5645 10.6309C20.8077 10.135 20.6029 9.5359 20.1071 9.29267C19.6112 9.04945 19.0121 9.25424 18.7689 9.75008L16.8218 13.7195C16.2182 14.9498 14.4444 14.8897 13.9255 13.6214C12.7533 10.756 8.74607 10.6202 7.38264 13.3997L5.43553 17.3691Z" fill="#FAFAFA"/>
<path fill-rule="evenodd" clip-rule="evenodd" d="M20.3333 3.33333C20.3333 5.17428 21.8257 6.66667 23.6667 6.66667C25.5076 6.66667 27 5.17428 27 3.33333C27 1.49238 25.5076 0 23.6667 0C21.8257 0 20.3333 1.49238 20.3333 3.33333ZM22.3333 3.33333C22.3333 4.06971 22.9303 4.66667 23.6667 4.66667C24.403 4.66667 25 4.06971 25 3.33333C25 2.59695 24.403 2 23.6667 2C22.9303 2 22.3333 2.59695 22.3333 3.33333Z" fill="#FAFAFA"/>
</svg>
