<svg width="26" height="30" viewBox="0 0 26 30" fill="none" xmlns="http://www.w3.org/2000/svg">
<path d="M6.66667 15C6.66667 14.4477 7.11438 14 7.66667 14H11.6667C12.219 14 12.6667 14.4477 12.6667 15C12.6667 15.5522 12.219 16 11.6667 16H7.66667C7.11438 16 6.66667 15.5522 6.66667 15Z" fill="#FAFAFA"/>
<path d="M6.66667 20.3333C6.66667 19.781 7.11438 19.3333 7.66667 19.3333H18.3333C18.8856 19.3333 19.3333 19.781 19.3333 20.3333C19.3333 20.8856 18.8856 21.3333 18.3333 21.3333H7.66667C7.11438 21.3333 6.66667 20.8856 6.66667 20.3333Z" fill="#FAFAFA"/>
<path fill-rule="evenodd" clip-rule="evenodd" d="M18.3765 0.778259C19.8093 0.890855 21.0065 1.12226 22.0376 1.6422C22.3189 1.78408 22.5855 1.94618 22.8397 2.13083C23.4905 2.60371 24.0629 3.17608 24.5358 3.82694C25.3169 4.90204 25.6667 6.16121 25.835 7.71526C26 9.2381 26 11.1576 26 13.6063V16.3937C26 18.8424 26 20.7618 25.835 22.2847C25.6667 23.8387 25.3169 25.0979 24.5358 26.173C24.0629 26.8238 23.4905 27.3962 22.8397 27.8691C21.7646 28.6502 20.5054 29 18.9514 29.1683C17.4285 29.3333 15.5091 29.3333 13.0604 29.3333H12.9396C10.4909 29.3333 8.57148 29.3333 7.04864 29.1683C5.49459 29 4.23541 28.6502 3.16031 27.8691C2.50945 27.3962 1.93708 26.8238 1.4642 26.173C0.683099 25.0979 0.333342 23.8387 0.164971 22.2847C-1.95305e-05 20.7618 -1.08664e-05 18.8423 1.80299e-07 16.3936V13.6063C-1.08664e-05 11.1576 -1.95305e-05 9.23811 0.164971 7.71526C0.333342 6.16121 0.683099 4.90204 1.4642 3.82694C1.93708 3.17608 2.50945 2.60371 3.16031 2.13083C3.65052 1.77467 4.18265 1.5056 4.77012 1.3029C5.74177 0.967639 6.86228 0.815522 8.17979 0.740923C9.49201 0.666623 11.0699 0.666624 12.9728 0.666626H13.0406C15.2073 0.666622 16.9559 0.666618 18.3765 0.778259ZM18.2199 2.77211C16.8865 2.66733 15.2156 2.66663 13 2.66663C11.0646 2.66663 9.54224 2.66698 8.29285 2.73772C7.85749 2.76238 7.46387 2.79525 7.10556 2.83804C8.21456 3.93398 9.10557 4.77938 9.90096 5.41599C10.9708 6.27229 11.7794 6.67624 12.5988 6.80602C13.1861 6.89904 13.7844 6.89904 14.3718 6.80602C15.1683 6.67986 15.9548 6.29455 16.9808 5.48649C17.7645 4.86932 18.6412 4.04428 19.7323 2.96907C19.2981 2.88207 18.8003 2.81773 18.2199 2.77211ZM21.7345 3.80083C20.3635 5.16536 19.2358 6.25637 18.2182 7.05774C17.0506 7.97731 15.9488 8.58116 14.6846 8.78139C13.89 8.90725 13.0806 8.90725 12.286 8.78139C10.9854 8.5754 9.85658 7.94217 8.65122 6.97745C7.57194 6.11363 6.36116 4.92475 4.86241 3.42827C4.67413 3.52325 4.49999 3.62963 4.33588 3.74886C3.85481 4.09838 3.43176 4.52144 3.08224 5.00251C2.59012 5.67985 2.30327 6.5468 2.15334 7.93069C2.00137 9.33328 2 11.1445 2 13.6666V16.3333C2 18.8554 2.00137 20.6666 2.15334 22.0692C2.30327 23.4531 2.59012 24.3201 3.08224 24.9974C3.43176 25.4785 3.85481 25.9015 4.33588 26.2511C5.01322 26.7432 5.88018 27.03 7.26406 27.18C8.66666 27.3319 10.4779 27.3333 13 27.3333C15.5221 27.3333 17.3333 27.3319 18.7359 27.18C20.1198 27.03 20.9868 26.7432 21.6641 26.2511C22.1452 25.9015 22.5682 25.4785 22.9178 24.9974C23.4099 24.3201 23.6967 23.4531 23.8467 22.0692C23.9986 20.6666 24 18.8554 24 16.3333V13.6666C24 11.1445 23.9986 9.33328 23.8467 7.93069C23.6967 6.5468 23.4099 5.67985 22.9178 5.00251C22.5854 4.54504 22.1865 4.14003 21.7345 3.80083Z" fill="#FAFAFA"/>
</svg>
