<svg width="28" height="28" viewBox="0 0 28 28" fill="none" xmlns="http://www.w3.org/2000/svg">
<path d="M1.12915 13.6681C1.12915 19.3234 1.77804 22.3137 3.49318 23.9937C4.34115 24.8243 5.52992 25.4123 7.25854 25.7886C8.99739 26.1671 11.218 26.3177 14.0646 26.3177C16.9113 26.3177 19.1319 26.1671 20.8707 25.7886C22.5993 25.4123 23.7881 24.8243 24.6361 23.9937C26.3512 22.3137 27.0001 19.3234 27.0001 13.6681C27.0001 8.01271 26.3512 5.02237 24.6361 3.3424C23.7881 2.51183 22.5993 1.92383 20.8707 1.54754C19.1319 1.16902 16.9113 1.01836 14.0646 1.01836C11.218 1.01836 8.99739 1.16902 7.25854 1.54754C5.52992 1.92383 4.34115 2.51183 3.49318 3.3424C1.77804 5.02237 1.12915 8.01271 1.12915 13.6681Z" stroke="#F9F9F9" stroke-width="2" stroke-linecap="round" stroke-linejoin="round"/>
<path d="M16.6083 15.8667L17.5563 16.2088C17.4029 16.6167 17.0746 16.9383 16.6581 17.0886L10.1034 19.4537C8.89028 19.8914 7.71062 18.7359 8.1575 17.5477L10.5721 11.1274L11.5089 11.4654L10.5721 11.1274C10.7256 10.7194 11.0538 10.3979 11.4703 10.2476L18.0251 7.88249C19.2382 7.44477 20.4178 8.60025 19.9709 9.78847M16.6083 15.8667L19.9709 9.78847M16.6083 15.8667L17.5563 16.2088M16.6083 15.8667L17.5563 16.2088M19.9709 9.78847L17.5563 16.2088M19.9709 9.78847L17.5563 16.2088" stroke="#F9F9F9" stroke-width="2" stroke-linecap="round" stroke-linejoin="round"/>
</svg>
