<svg width="26" height="26" viewBox="0 0 26 26" fill="none" xmlns="http://www.w3.org/2000/svg">
<path d="M20.5645 9.63088C20.8077 9.13503 20.6029 8.5359 20.1071 8.29267C19.6112 8.04945 19.0121 8.25424 18.7689 8.75008L16.8218 12.7195C16.2182 13.9498 14.4444 13.8897 13.9255 12.6214C12.7533 9.75597 8.74607 9.62023 7.38264 12.3997L5.43553 16.3691C5.19231 16.865 5.39709 17.4641 5.89293 17.7073C6.38878 17.9506 6.98791 17.7458 7.23114 17.2499L9.17825 13.2805C9.78177 12.0502 11.5556 12.1103 12.0745 13.3786C13.2467 16.244 17.2539 16.3798 18.6174 13.6003L20.5645 9.63088Z" fill="#FAFAFA"/>
<path fill-rule="evenodd" clip-rule="evenodd" d="M18.9514 0.164971C17.4285 -1.93715e-05 15.509 -1.07113e-05 13.0603 1.76449e-07H12.9397C10.491 -1.07113e-05 8.57148 -1.93715e-05 7.04864 0.164971C5.49459 0.333342 4.23541 0.683099 3.16031 1.4642C2.50945 1.93708 1.93708 2.50945 1.4642 3.16031C0.683099 4.23541 0.333342 5.49459 0.164971 7.04864C-1.93715e-05 8.57148 -1.07113e-05 10.491 1.7645e-07 12.9397V13.0603C-1.07113e-05 15.509 -1.93715e-05 17.4285 0.164971 18.9514C0.333342 20.5054 0.683099 21.7646 1.4642 22.8397C1.93708 23.4905 2.50945 24.0629 3.16031 24.5358C4.23541 25.3169 5.49459 25.6667 7.04864 25.835C8.57146 26 10.4909 26 12.9395 26H13.0604C15.509 26 17.4285 26 18.9514 25.835C20.5054 25.6667 21.7646 25.3169 22.8397 24.5358C23.4905 24.0629 24.0629 23.4905 24.5358 22.8397C25.3169 21.7646 25.6667 20.5054 25.835 18.9514C26 17.4285 26 15.5091 26 13.0605V12.9396C26 10.491 26 8.57146 25.835 7.04864C25.6667 5.49459 25.3169 4.23541 24.5358 3.16031C24.0629 2.50945 23.4905 1.93708 22.8397 1.4642C21.7646 0.683099 20.5054 0.333342 18.9514 0.164971ZM4.33588 3.08224C5.01322 2.59012 5.88018 2.30327 7.26406 2.15334C8.66666 2.00137 10.4779 2 13 2C15.5221 2 17.3333 2.00137 18.7359 2.15334C20.1198 2.30327 20.9868 2.59012 21.6641 3.08224C22.1452 3.43176 22.5682 3.85482 22.9178 4.33588C23.4099 5.01322 23.6967 5.88018 23.8467 7.26406C23.9986 8.66666 24 10.4779 24 13C24 15.5221 23.9986 17.3333 23.8467 18.7359C23.6967 20.1198 23.4099 20.9868 22.9178 21.6641C22.5682 22.1452 22.1452 22.5682 21.6641 22.9178C20.9868 23.4099 20.1198 23.6967 18.7359 23.8467C17.3333 23.9986 15.5221 24 13 24C10.4779 24 8.66666 23.9986 7.26406 23.8467C5.88018 23.6967 5.01322 23.4099 4.33588 22.9178C3.85482 22.5682 3.43176 22.1452 3.08224 21.6641C2.59012 20.9868 2.30327 20.1198 2.15334 18.7359C2.00137 17.3333 2 15.5221 2 13C2 10.4779 2.00137 8.66666 2.15334 7.26406C2.30327 5.88018 2.59012 5.01322 3.08224 4.33588C3.43176 3.85481 3.85481 3.43176 4.33588 3.08224Z" fill="#FAFAFA"/>
</svg>
