<svg width="26" height="26" viewBox="0 0 26 26" fill="none" xmlns="http://www.w3.org/2000/svg">
<path d="M17 0C16.4477 0 16 0.447715 16 1C16 1.55228 16.4477 2 17 2H18.3333C21.4629 2 24 4.53705 24 7.66667V9C24 9.55229 24.4477 10 25 10C25.5523 10 26 9.55229 26 9V7.66667C26 3.43248 22.5675 0 18.3333 0H17Z" fill="#FAFAFA"/>
<path d="M7.66667 0C3.43248 0 0 3.43248 0 7.66667V9C0 9.55229 0.447716 10 1 10C1.55229 10 2 9.55229 2 9V7.66667C2 4.53705 4.53705 2 7.66667 2H9C9.55229 2 10 1.55229 10 1C10 0.447716 9.55229 0 9 0H7.66667Z" fill="#FAFAFA"/>
<path fill-rule="evenodd" clip-rule="evenodd" d="M7.66667 4C5.64162 4 4 5.64162 4 7.66667C4 9.69171 5.64162 11.3333 7.66667 11.3333C9.69171 11.3333 11.3333 9.69171 11.3333 7.66667C11.3333 5.64162 9.69171 4 7.66667 4ZM6 7.66667C6 6.74619 6.74619 6 7.66667 6C8.58714 6 9.33333 6.74619 9.33333 7.66667C9.33333 8.58714 8.58714 9.33333 7.66667 9.33333C6.74619 9.33333 6 8.58714 6 7.66667Z" fill="#FAFAFA"/>
<path fill-rule="evenodd" clip-rule="evenodd" d="M18.3333 14.6667C16.3083 14.6667 14.6667 16.3083 14.6667 18.3333C14.6667 20.3584 16.3083 22 18.3333 22C20.3584 22 22 20.3584 22 18.3333C22 16.3083 20.3584 14.6667 18.3333 14.6667ZM16.6667 18.3333C16.6667 17.4129 17.4129 16.6667 18.3333 16.6667C19.2538 16.6667 20 17.4129 20 18.3333C20 19.2538 19.2538 20 18.3333 20C17.4129 20 16.6667 19.2538 16.6667 18.3333Z" fill="#FAFAFA"/>
<path fill-rule="evenodd" clip-rule="evenodd" d="M7.66667 16C6.378 16 5.33333 17.0447 5.33333 18.3333C5.33333 19.622 6.378 20.6667 7.66667 20.6667C8.95533 20.6667 10 19.622 10 18.3333C10 17.0447 8.95533 16 7.66667 16ZM7.33333 18.3333C7.33333 18.1492 7.48257 18 7.66667 18C7.85076 18 8 18.1492 8 18.3333C8 18.5174 7.85076 18.6667 7.66667 18.6667C7.48257 18.6667 7.33333 18.5174 7.33333 18.3333Z" fill="#FAFAFA"/>
<path d="M2 17C2 16.4477 1.55228 16 1 16C0.447715 16 0 16.4477 0 17V18.3333C0 22.5675 3.43249 26 7.66667 26H9C9.55229 26 10 25.5523 10 25C10 24.4477 9.55229 24 9 24H7.66667C4.53705 24 2 21.4629 2 18.3333V17Z" fill="#FAFAFA"/>
<path d="M26 17C26 16.4477 25.5523 16 25 16C24.4477 16 24 16.4477 24 17V18.3333C24 21.4629 21.4629 24 18.3333 24H17C16.4477 24 16 24.4477 16 25C16 25.5523 16.4477 26 17 26H18.3333C22.5675 26 26 22.5675 26 18.3333V17Z" fill="#FAFAFA"/>
</svg>
