<svg width="28" height="29" viewBox="0 0 28 29" fill="none" xmlns="http://www.w3.org/2000/svg">
<path fill-rule="evenodd" clip-rule="evenodd" d="M7.43612 4.31105C7.66652 4.03787 8.34684 3.60363 9.67775 3.25679C10.9293 2.93064 12.4754 2.75466 14.0647 2.75464C15.6539 2.75462 17.2001 2.93057 18.4515 3.25671C19.7824 3.60353 20.4627 4.03778 20.6931 4.31097C20.6927 4.31051 20.6927 4.31056 20.6932 4.31116C20.6976 4.31721 20.7429 4.37872 20.8077 4.53427C20.877 4.70065 20.951 4.93202 21.0209 5.23837C21.1618 5.85595 21.2597 6.66008 21.3114 7.62055C21.4147 9.53788 21.3236 11.8595 21.1514 14.1124C20.8804 17.6584 17.8114 20.3667 14.0646 20.3667C10.3179 20.3667 7.24884 17.6584 6.97786 14.1124C6.80569 11.8595 6.71459 9.53779 6.81784 7.62046C6.86955 6.65998 6.96748 5.85587 7.10836 5.2383C7.17824 4.93197 7.25223 4.70062 7.32153 4.53426C7.38629 4.37879 7.43157 4.3173 7.43603 4.31124C7.43648 4.31063 7.43652 4.31058 7.43612 4.31105ZM5.90726 3.02163C8.4564 -0.000876546 19.6729 -0.00117403 22.222 3.02163C22.6841 3.5696 22.9787 4.55463 23.1513 5.80024C26.9733 6.47581 28.0001 7.96577 28.0001 10.9919C28.0001 14.1195 26.9033 15.6062 22.7569 16.2488C21.5842 19.8819 18.0671 22.3667 14.0646 22.3667C10.0622 22.3667 6.54509 19.8819 5.37237 16.2488C1.22602 15.6062 0.12915 14.1195 0.12915 10.9919C0.12915 7.96577 1.15593 6.47582 4.97799 5.80024C5.15057 4.5546 5.44514 3.56957 5.90726 3.02163ZM4.80366 7.87214C4.29422 7.98284 3.88244 8.10755 3.54917 8.24357C2.85138 8.52835 2.5921 8.82146 2.44924 9.08381C2.27175 9.40975 2.12915 9.96044 2.12915 10.9919C2.12915 12.0233 2.27175 12.574 2.44924 12.8999C2.5921 13.1623 2.85138 13.4554 3.54917 13.7402C3.91899 13.8911 4.38546 14.0281 4.97479 14.1475C4.81556 12.0277 4.72379 9.80138 4.80366 7.87214ZM23.1545 14.1475C23.7438 14.0281 24.2103 13.8911 24.5801 13.7402C25.2779 13.4554 25.5372 13.1623 25.68 12.8999C25.8575 12.574 26.0001 12.0233 26.0001 10.9919C26.0001 9.96044 25.8575 9.40975 25.68 9.08381C25.5372 8.82146 25.2779 8.52835 24.5801 8.24357C24.2468 8.10755 23.8351 7.98284 23.3256 7.87214C23.4055 9.80139 23.3137 12.0277 23.1545 14.1475Z" fill="#F9F9F9"/>
<path d="M14.0647 22.3667V26.9166H17.5486H10.5808" stroke="#F9F9F9" stroke-width="2" stroke-linecap="round" stroke-linejoin="round"/>
</svg>
